# xmcd
#
# Track frame offsets: 
#        150
#        27215
#        46200
#        65468
#        89493
#        102722
#        119094
#        144722
#
# Disc length: 2323 seconds
#
# Revision: 0
# Processed by: cddbd v1.5.1PL2 Copyright (c) Steve Scherf et al.
# Submitted via: ExactAudioCopy v0.95b3
#
DISCID=76091108
DTITLE=John Mayall - Bottom Line
DYEAR=1979
DGENRE=Funk
TTITLE0=Bottom Line
TTITLE1=Dreamboat
TTITLE2=Desert Flower
TTITLE3=I'm Gonna Do It
TTITLE4=Revival
TTITLE5=The Game Of Love
TTITLE6=Celebration
TTITLE7=Come With Me
EXTD=
EXTT0=
EXTT1=
EXTT2=
EXTT3=
EXTT4=
EXTT5=
EXTT6=
EXTT7=
PLAYORDER=
